<?xml version="1.0" standalone="no"?>
<!DOCTYPE svg PUBLIC "-//W3C//DTD SVG 20010904//EN"
 "http://www.w3.org/TR/2001/REC-SVG-20010904/DTD/svg10.dtd">
<svg version="1.0" xmlns="http://www.w3.org/2000/svg"
 width="992.000000pt" height="900.000000pt" viewBox="0 0 992.000000 900.000000"
 preserveAspectRatio="xMidYMid meet">

<g transform="translate(0.000000,900.000000) scale(0.100000,-0.100000)"
fill="#000000" stroke="none">
<path d="M0 4500 l0 -4500 4960 0 4960 0 0 4500 0 4500 -4960 0 -4960 0 0
-4500z m4890 4100 c58 -11 148 -38 200 -60 52 -21 106 -42 120 -46 14 -3 79
-28 145 -54 71 -28 153 -52 200 -59 44 -7 96 -17 115 -21 50 -13 172 -42 195
-46 51 -10 164 -46 267 -87 62 -24 147 -50 188 -56 41 -6 113 -24 160 -38 47
-15 87 -27 90 -27 3 -1 34 -12 70 -26 119 -44 195 -97 333 -230 88 -85 102
-92 324 -165 150 -50 323 -127 354 -157 8 -8 52 -43 99 -78 107 -81 146 -119
198 -197 71 -105 99 -188 172 -522 26 -120 75 -206 205 -356 94 -110 179 -246
209 -336 18 -56 46 -239 46 -303 0 -32 12 -73 39 -133 78 -176 94 -253 97
-453 2 -74 4 -205 6 -290 4 -174 4 -172 97 -305 101 -145 128 -250 96 -362
-23 -78 -72 -189 -105 -238 -25 -37 -28 -48 -29 -145 -2 -217 -19 -329 -76
-504 -29 -88 -60 -195 -70 -236 -10 -41 -30 -122 -46 -180 -15 -58 -31 -125
-34 -149 -10 -64 -102 -278 -144 -336 -19 -27 -133 -149 -251 -271 -134 -137
-258 -276 -330 -369 -139 -179 -312 -369 -426 -467 -46 -40 -134 -120 -197
-178 -150 -140 -326 -263 -587 -412 -351 -201 -396 -218 -695 -257 -82 -11
-170 -25 -195 -30 -127 -29 -175 -31 -241 -11 -104 31 -371 125 -406 143 -21
11 -56 17 -103 17 -62 0 -79 -4 -148 -40 -89 -46 -212 -80 -288 -80 -56 0
-216 49 -396 121 -199 80 -412 151 -493 165 -16 3 -73 14 -125 25 -52 12 -108
23 -125 26 -85 14 -169 35 -198 49 -18 9 -64 43 -104 75 -49 40 -100 70 -159
94 -48 19 -115 52 -148 73 -34 22 -83 52 -111 67 -123 68 -233 167 -305 275
-73 108 -263 287 -367 345 -88 50 -208 143 -254 200 -28 33 -64 63 -98 80 -74
36 -166 109 -202 158 -30 41 -59 100 -84 168 -7 19 -42 63 -79 99 -76 73 -182
226 -221 320 -33 77 -105 287 -105 303 0 12 -14 41 -70 142 -47 86 -70 127
-104 179 -73 115 -148 285 -182 414 -16 61 -18 301 -5 702 11 332 31 411 150
605 30 50 80 140 111 200 94 185 176 316 263 422 72 87 103 136 139 218 62
144 109 244 211 448 122 244 153 285 322 424 83 69 431 406 459 445 23 32 242
230 301 273 33 24 107 68 165 100 58 31 121 69 140 84 38 29 106 72 302 187
149 89 388 194 614 270 176 60 297 120 469 233 129 86 246 147 315 164 83 22
205 20 320 -3z"/>
</g>
</svg>
