<svg width="2516" height="5684" viewBox="0 0 2516 5684" fill="none" xmlns="http://www.w3.org/2000/svg">
<g clip-path="url(#clip0_582_27)">
<rect width="2516" height="5684" fill="white"/>
<path d="M2515.5 4857C2286.75 4857 2067.37 4723.83 1905.62 4486.78C1743.87 4249.74 1653 3928.23 1653 3593C1653 3257.77 1743.87 2936.26 1905.62 2699.22C2067.37 2462.17 2286.75 2329 2515.5 2329L2515.5 3593L2515.5 4857Z" fill="url(#paint0_radial_582_27)"/>
<path d="M862 5677C862 5511.01 839.691 5346.64 796.346 5193.29C753.001 5039.93 689.47 4900.59 609.38 4783.22C529.289 4665.84 434.208 4572.74 329.564 4509.22C224.921 4445.69 112.765 4413 -0.500038 4413L-0.5 5677H862Z" fill="url(#paint1_radial_582_27)"/>
</g>
<defs>
<radialGradient id="paint0_radial_582_27" cx="0" cy="0" r="1" gradientUnits="userSpaceOnUse" gradientTransform="translate(2515.5 3593) rotate(90) scale(1264 862.5)">
<stop stop-color="#E4E4E4"/>
<stop offset="1" stop-color="#F1F1F1" stop-opacity="0"/>
</radialGradient>
<radialGradient id="paint1_radial_582_27" cx="0" cy="0" r="1" gradientUnits="userSpaceOnUse" gradientTransform="translate(-0.5 5677) rotate(90) scale(1264 862.5)">
<stop stop-color="#E4E4E4"/>
<stop offset="1" stop-color="#F1F1F1" stop-opacity="0"/>
</radialGradient>
<clipPath id="clip0_582_27">
<rect width="2516" height="5684" fill="white"/>
</clipPath>
</defs>
</svg>
